<svg fill="none" height="500" viewBox="0 0 500 500" width="500" xmlns="http://www.w3.org/2000/svg" xmlns:xlink="http://www.w3.org/1999/xlink"><linearGradient id="a" gradientUnits="userSpaceOnUse" x1="234.825" x2="234.825" y1="197.257" y2="412.655"><stop offset="0" stop-color="#1a9dc7"/><stop offset="1" stop-color="#0a5e79"/></linearGradient><ellipse cx="250.19" cy="424.777" fill="#f2c47f" rx="177" ry="10" transform="matrix(.99970767 -.02417778 .02417778 .99970767 -10.19703 6.173213)"/><path d="m260.223 254.186-69 12.5c4.368-6.251 1.678-55.518 12-71 5-7.5 14.5-7.5 18.5-6 15.59 5.847 38.745 51.404 38.5 64.5z" fill="#00485f" stroke="#030303" stroke-width="2"/><path d="m247.504 234.144c-1.524 1.262-14.466 3.315-20.746 4.184-.089-1.456.505-4.854 3.587-6.795 3.852-2.426 11.867-2.182 14.812-3.092s4.251 4.126 2.347 5.703z" fill="#13718f"/><path d="m242.504 225.144c-1.524 1.262-14.466 3.315-20.746 4.184-.089-1.456.505-4.854 3.587-6.795 3.852-2.426 11.867-2.182 14.812-3.092s4.251 4.126 2.347 5.703z" fill="#13718f"/><path d="m236.504 215.144c-1.524 1.262-14.466 3.315-20.746 4.184-.089-1.456.505-4.854 3.587-6.795 3.852-2.426 11.867-2.182 14.812-3.092s4.251 4.126 2.347 5.703z" fill="#13718f"/><path d="m229.586 205.282c-1.246 1.071-10.761 1.579-15.364 1.7.117-1.455.96-4.753 3.405-6.314 3.056-1.951 8.763-.763 10.982-1.318 2.22-.554 2.534 4.593.977 5.932z" fill="#13718f"/><path d="m221.521 196.053c-.936 1.096-7.922 1.807-11.299 2.025.117-1.454.805-4.765 2.631-6.375 2.282-2.013 5.603-.761 7.603 0 1.632.621 2.235 2.98 1.065 4.35z" fill="#13718f"/><g stroke="#000"><path d="m350.966 295.369c5.225 11.913 8.202 23.419 8.817 32.372.307 4.48.019 8.265-.836 11.123-.857 2.864-2.236 4.664-4.017 5.445s-4.039.577-6.726-.733c-2.682-1.307-5.661-3.658-8.75-6.92-6.169-6.516-12.618-16.5-17.842-28.412-5.225-11.913-8.202-23.419-8.817-32.372-.307-4.481-.019-8.265.836-11.124.856-2.863 2.236-4.664 4.017-5.445s4.039-.576 6.726.733c2.682 1.308 5.661 3.659 8.749 6.92 6.17 6.516 12.619 16.5 17.843 28.413z" fill="#1a9dc7" stroke-width="2"/><path d="m135.42 323.537c-7.854 9.458-13.48 19.195-16.246 27.266-1.384 4.038-2.034 7.607-1.923 10.488s.973 4.958 2.487 6.215c1.513 1.256 3.712 1.723 6.565 1.303 2.852-.42 6.241-1.714 9.957-3.816 7.425-4.201 15.964-11.519 23.819-20.977 7.855-9.457 13.48-19.195 16.246-27.265 1.384-4.039 2.034-7.608 1.923-10.488-.11-2.882-.973-4.958-2.486-6.215-1.514-1.257-3.713-1.723-6.566-1.303-2.852.42-6.241 1.714-9.957 3.816-7.425 4.201-15.964 11.518-23.819 20.976z" fill="#1a9dc7" stroke-width="2"/><path d="m310.624 400.095c-9.62-1.007-18.435-.597-24.901.858-3.238.728-5.844 1.709-7.663 2.874-1.827 1.169-2.753 2.449-2.89 3.756-.559 5.342.055 9.041 1.491 11.617 1.423 2.552 3.713 4.11 6.755 5.05 3.065.946 6.844 1.249 11.156 1.306 2.398.032 4.904-.011 7.52-.056 2.12-.036 4.313-.074 6.58-.074 2.388 0 4.693.028 6.908.054 7.132.086 13.323.16 18.304-.737 3.24-.583 5.883-1.567 7.892-3.171 1.994-1.591 3.422-3.84 4.159-7.07.839-3.673.238-6.154-1.26-7.918-1.537-1.811-4.133-3.01-7.589-3.83-3.441-.816-7.606-1.229-12.159-1.563-1.301-.096-2.633-.185-3.987-.275-3.362-.225-6.855-.459-10.316-.821z" fill="#075169" stroke-width="1.51989"/><path d="m345.783 415.124c-4.699-.764-14.599-2.117-16.607-1.411" stroke-width="1.51989"/><path d="m339.46 422.759c-2.801-1.31-8.78-3.976-10.288-4.159" stroke-width="1.51989"/><path d="m199.077 400.095c9.62-1.007 18.435-.597 24.902.858 3.237.728 5.843 1.709 7.662 2.874 1.827 1.169 2.754 2.449 2.89 3.756.559 5.342-.055 9.041-1.491 11.617-1.422 2.552-3.712 4.11-6.755 5.05-3.065.946-6.844 1.249-11.156 1.306-2.398.032-4.904-.011-7.52-.056-2.12-.036-4.313-.074-6.579-.074-2.388 0-4.694.028-6.909.054-7.132.086-13.323.16-18.303-.737-3.241-.583-5.884-1.567-7.893-3.171-1.994-1.591-3.422-3.84-4.159-7.07-.839-3.673-.237-6.154 1.26-7.918 1.538-1.811 4.134-3.01 7.589-3.83 3.441-.816 7.606-1.229 12.159-1.563 1.301-.096 2.634-.185 3.987-.275 3.362-.225 6.855-.459 10.316-.821z" fill="#075169" stroke-width="1.51989"/><path d="m163.918 415.124c4.699-.764 14.6-2.117 16.607-1.411" stroke-width="1.51989"/><path d="m170.241 422.759c2.801-1.31 8.78-3.976 10.289-4.159" stroke-width="1.51989"/><path d="m321.154 202.686c-28-19.5-179.919 18.268-185.5 38.5-16 58 48.566 179.972 122 171 110.499-13.5 76.591-200.383 63.5-209.5z" fill="url(#a)" stroke-width="2"/><path d="m312.653 280.686c-33.6 2-55.334 5.5-62 7 0-27 11.1-60.5 29.5-60.5s32.5 35.333 32.5 53.5z" fill="#fff" stroke-width="2"/><path d="m228.372 295.005c-32.854 7.318-53.755 14.23-60.098 16.771-4.294-26.656 1.338-61.495 19.503-64.421 18.166-2.927 37.706 29.715 40.595 47.65z" fill="#fff" stroke-width="2"/><path d="m198.153 340.686c14.166 9 57.5-.4 95.5-38-7.167 52.333-40.7 147.6-95.5 38z" fill="#d0f4ff" stroke-width="2"/><path d="m186.653 305.686 41-10.5c1.6-7.2-9.667-24.667-15.5-32.5-6.667.167-21.3 3.4-26.5 15s-1.5 23.5 1 28z" fill="#000"/><path d="m258.653 250.186c-4.4 2-6.834 25.167-7.5 36.5l49.5-5.5c-1-9.5-2.5-14.5-4-20.5-5.118-20.471-32.5-13-38-10.5z" fill="#0b0b0b"/></g><path d="m351.169 303.771c-4.515-16.179-6.223-6.225-9.126-5.414-2.904.81-.552-.77 3.963 15.409s4.046 14.283 5.998 13.738c2.904-.811 3.68-7.554-.835-23.733z" fill="#207a96"/><path d="m245.668 289.061c-.934.89-9.11 2.557-13.081 3.28-.097-.987 0-3.28.413-4.841.132-.5 9.168-1.583 11.016-2.263 1.847-.68 2.819 2.713 1.652 3.824z" fill="#136079"/><path d="m262.5 348.5c10.5-30-4.5-18-4.5-18l-14 6.5-15.658 4.812c2.315 9.741 23.658 36.688 34.158 6.688z" fill="#fff" stroke="#000" stroke-width="2"/></svg>