<svg fill="none" height="500" viewBox="0 0 500 500" width="500" xmlns="http://www.w3.org/2000/svg" xmlns:xlink="http://www.w3.org/1999/xlink"><linearGradient id="a" gradientUnits="userSpaceOnUse" x1="238.003" x2="299.025" y1="196.218" y2="420.579"><stop offset="0" stop-color="#6400c9"/><stop offset="1" stop-color="#410281"/></linearGradient><ellipse cx="250.19" cy="430.718" fill="#f2c47f" rx="177" ry="10" transform="matrix(.99970767 -.02417778 .02417778 .99970767 -10.34067 6.17495)"/><path d="m138.815 273.469 38.18-36.586c-6.931-3.18-16.278-6.044-23.97-24.245l-34 22c1.5 13.5 10 29 19.79 38.831z" fill="#330b5a" stroke="#030303" stroke-width="2"/><path d="m150.598 246.476c-3.334-3.687-4.189-1.167-9.795 3.903s-10.656 9.677-7.322 13.364c3.334 3.686 4.989-3.816 10.595-8.886s9.856-4.695 6.522-8.381z" fill="#4b1580"/><path d="m151.375 234.827c-2.745-4.143-3.967-1.779-10.267 2.397-6.301 4.176-11.983 7.976-9.237 12.12 2.746 4.143 5.503-3.028 11.804-7.203 6.301-4.176 10.446-3.17 7.7-7.314z" fill="#4b1580"/><path d="m153.749 221.436c-2.498-4.297-3.856-2.009-10.392 1.789-6.535 3.798-12.43 7.258-9.933 11.555 2.498 4.298 5.672-2.698 12.207-6.496 6.536-3.797 10.615-2.55 8.118-6.848z" fill="#4b1580"/><path d="m350.182 273.469-38.18-36.586c6.931-3.18 9.925-.732 17.616-18.933l28.929 25.847c.603 8.688-1.524 18.502-8.365 29.672z" fill="#024e40" stroke="#030303" stroke-width="2"/><path d="m335.277 247.916c3.334-3.687 4.188-1.166 9.794 3.904 5.607 5.07 10.657 9.676 7.323 13.363s-4.99-3.815-10.596-8.885-9.855-4.695-6.521-8.382z" fill="#116959"/><path d="m139.525 271.637c-25.347 42.245-17.5 125.942-6 159 25.2 2.8 73.808 1.196 79.975-2.137l1.524-27.921c23.001 0 32.001 1.058 51.5-3l9.501 27c29.5 6.5 77.9.415 79-2.941 10-30.5 16.5-83.001 3-134.501-12.045-45.947-89-80-130-71-68.583 15.055-82.5 45.5-88.5 55.5z" fill="url(#a)" stroke="#000" stroke-width="2"/><path d="m279.698 350.417c10.878-11.711 0-9.28 0-9.28l-33.487 6.13c.508 10 22.609 14.861 33.487 3.15z" fill="#fff" stroke="#000" stroke-width="2"/><path d="m182.525 348.079c2 0 38.5 7 113-10.5" stroke="#000" stroke-width="2"/><path d="m295.869 308.981c-7.279 7.5-16.096 12.073-24.434 13.439-8.337 1.365-16.124-.48-21.507-5.705-5.384-5.225-7.461-12.952-6.346-21.327s5.422-17.325 12.7-24.825c7.279-7.5 16.096-12.073 24.434-13.438 8.337-1.366 16.124.479 21.508 5.704 5.383 5.225 7.461 12.953 6.345 21.327-1.115 8.375-5.422 17.325-12.7 24.825z" fill="#fff" stroke="#000" stroke-width="2"/><path d="m223.036 278.198c6.387 8.272 9.659 17.65 9.824 26.097s-2.769 15.892-8.707 20.477c-5.938 4.586-13.883 5.542-22.013 3.246-8.131-2.295-16.377-7.832-22.765-16.104s-9.659-17.651-9.824-26.097c-.165-8.448 2.769-15.892 8.707-20.477 5.938-4.586 13.882-5.542 22.013-3.247 8.131 2.296 16.377 7.833 22.765 16.105z" fill="#fff" stroke="#000" stroke-width="2"/><ellipse cx="265.597" cy="303.699" fill="#161212" rx="18.3726" ry="20.6586" transform="matrix(.71761719 .69643777 -.69643777 .71761719 286.507482 -99.212406)"/><ellipse cx="211.193" cy="309.659" fill="#161212" rx="18.3726" ry="20.6586" transform="matrix(.79147962 -.61119556 .61119556 .79147962 -145.224161 193.650436)"/><path d="m266.525 397.579c3.833-1.833 12.5-3.441 20.5-7.941" stroke="#0d0a11" stroke-width="2"/><path d="m215.525 400.637c-5.5 0-12.693.198-21.5-2.385" stroke="#0d0a11" stroke-width="2"/><g fill="#791ed5"><path d="m276.004 252.274c-4.701 2.259-8.84 3.406-9.245 2.563-.406-.844 3.076-3.359 7.777-5.618 4.7-2.259 10.439-.345 10.844.498.406.844-4.676.299-9.376 2.557z"/><path d="m268.004 249.833c-4.701 2.259-8.84 3.406-9.245 2.562-.406-.843 3.076-3.358 7.777-5.617 4.7-2.259 10.439-.346 10.844.498.406.844-4.676.298-9.376 2.557z"/><path d="m208.4 260.029c3.85 3.518 7.482 5.809 8.114 5.118.631-.691-1.978-4.103-5.828-7.62-3.85-3.518-9.896-3.34-10.528-2.649-.631.691 4.392 1.633 8.242 5.151z"/><path d="m213.4 257.588c3.85 3.517 7.482 5.809 8.114 5.118.631-.691-1.978-4.103-5.828-7.621-3.85-3.517-9.896-3.339-10.528-2.648-.631.691 4.392 1.633 8.242 5.151z"/><path d="m247.025 323.264c0 .759-3.134 1.374-7 1.374s-7-.615-7-1.374c0-.758 3.134-.616 7-.616s7-.142 7 .616z"/><path d="m239.025 328.264c0 .759-2.463 1.374-5.5 1.374-3.038 0-5.5-.615-5.5-1.374 0-.758 2.462-.616 5.5-.616 3.037 0 5.5-.142 5.5.616z"/><path d="m255.025 328.264c0 .759-2.463 1.374-5.5 1.374-3.038 0-5.5-.615-5.5-1.374 0-.758 2.462-.616 5.5-.616 3.037 0 5.5-.142 5.5.616z"/><path d="m244.025 318.264c0 .759-1.567 1.374-3.5 1.374s-3.5-.615-3.5-1.374c0-.758 1.567-.616 3.5-.616s3.5-.142 3.5.616z"/></g><path d="m351.572 271.151-38.18-36.586c6.932-3.179 9.925-.731 17.617-18.933l28.928 25.847c.603 8.689-1.524 18.503-8.365 29.672z" fill="#330b5a" stroke="#030303" stroke-width="2"/><path d="m336.667 245.599c3.334-3.687 4.189-1.167 9.795 3.903s10.656 9.677 7.322 13.364c-3.334 3.686-4.989-3.816-10.595-8.886s-9.856-4.695-6.522-8.381z" fill="#4b1580"/><path d="m331.491 225.476c3.334-3.687 4.189-1.167 9.795 3.903s10.656 9.677 7.322 13.364c-3.334 3.686-4.989-3.816-10.595-8.886s-9.856-4.695-6.522-8.381z" fill="#4b1580"/></svg>