<svg fill="none" height="500" viewBox="0 0 500 500" width="500" xmlns="http://www.w3.org/2000/svg" xmlns:xlink="http://www.w3.org/1999/xlink"><linearGradient id="a" gradientUnits="userSpaceOnUse" x1="249" x2="249" y1="189.266" y2="429.472"><stop offset="0" stop-color="#139d84"/><stop offset="1" stop-color="#07836c"/></linearGradient><ellipse cx="250.19" cy="428.709" fill="#f2c47f" rx="177" ry="10" transform="matrix(.99970767 -.02417778 .02417778 .99970767 -10.292097 6.174362)"/><path d="m248.966 135.766c-18.5 38.5-15 18-29.043 66.68l52.111-8.979c-4.936-8.101-12.568-13.201-23.068-57.701z" fill="#024e40" stroke="#030303" stroke-width="2"/><path d="m234.19 185.025c-.247-4.964 2.139-3.785 9.688-4.159 7.55-.375 14.378-.685 14.625 4.28.246 4.964-6.226.826-13.776 1.201-7.549.375-10.291 3.643-10.537-1.322z" fill="#116959"/><path d="m237.613 173.483c-.198-4.967 2.179-2.553 7.193-2.752 5.013-.199 8.764-1.531 8.962 3.436s-4.131.681-9.145.881c-5.014.199-6.813 3.401-7.01-1.565z" fill="#116959"/><path d="m240.184 162.558c.146-2.496 2.295-.712 4.873-1.118 2.579-.406 4.048-1.816 4.272 2.148.193 3.414-2.055.846-4.634 1.253-2.579.406-3.738 2.627-4.511-2.283z" fill="#116959"/><g stroke-width="2"><path d="m356.008 322.613c2.389 9.686 2.855 18.826 1.714 25.754-.572 3.466-1.537 6.33-2.824 8.426-1.284 2.091-2.846 3.36-4.617 3.797-1.77.436-3.743.04-5.852-1.214-2.114-1.258-4.301-3.343-6.419-6.146-4.233-5.603-8.071-13.91-10.46-23.597-2.39-9.686-2.856-18.826-1.714-25.754.571-3.466 1.536-6.33 2.823-8.426 1.284-2.091 2.846-3.36 4.617-3.797s3.744-.04 5.853 1.214c2.114 1.258 4.3 3.343 6.418 6.146 4.233 5.603 8.071 13.91 10.461 23.597z" fill="#139d84" stroke="#000"/><path d="m169.554 317.762c-5.144 9.682-11.317 17.592-17.102 22.561-2.895 2.487-5.653 4.202-8.099 5.057-2.445.855-4.479.82-6.059-.019-1.58-.84-2.747-2.506-3.407-5.01-.66-2.506-.782-5.751-.342-9.542.881-7.576 3.981-17.118 9.125-26.8 5.145-9.683 11.317-17.592 17.103-22.562 2.895-2.486 5.652-4.202 8.099-5.057 2.445-.854 4.478-.82 6.058.02s2.747 2.505 3.408 5.01c.66 2.506.782 5.751.341 9.542-.88 7.576-3.98 17.117-9.125 26.8z" fill="#139d84" stroke="#000"/><path d="m249 190.433h.031l.032-.002c32.535-2.052 54.246 15.217 70.587 41.529 11.178 17.999 22.35 39.686 22.35 62.973 0 28.001-9.801 54.005-25.745 73.364-3.702 4.494-5.277 10.362-5.854 16.534-.576 6.162-.166 12.758.209 18.79l.002.033c.379 6.1.713 11.555.051 15.615-.33 2.019-.891 3.587-1.734 4.692-.816 1.069-1.94 1.764-3.561 1.981l-.017.002-.016.002c-11.906 1.985-34.324 2.487-47.335 2.487-.804 0-1.387-.215-1.841-.554-.468-.349-.863-.878-1.197-1.6-.682-1.478-.998-3.51-1.283-5.724-.029-.226-.058-.455-.087-.685-.243-1.931-.498-3.954-1.046-5.531-.312-.896-.748-1.745-1.409-2.377-.69-.659-1.572-1.029-2.637-1.029-.922 0-1.605.522-2.083 1.139-.469.604-.831 1.405-1.139 2.255-.404 1.117-.774 2.507-1.154 3.931-.191.718-.384 1.445-.586 2.15-.623 2.179-1.339 4.235-2.339 5.736-.979 1.469-2.144 2.289-3.699 2.289-2.157 0-4.269.042-6.546.087-8.84.175-20.178.401-46.379-1.584-.528-.04-.917-.195-1.22-.422-.309-.231-.584-.581-.814-1.092-.475-1.055-.695-2.65-.693-4.791.003-3.181.484-7.231 1.033-11.851.189-1.588.386-3.243.574-4.954.729-6.631 1.313-13.999.693-21.126-.619-7.128-2.448-14.087-6.603-19.852-13.448-18.662-21.545-42.464-21.545-67.915 0-22.876 11.999-42.004 23.338-59.455 17.012-26.181 38.921-45.045 69.662-45.045z" fill="url(#a)" stroke="#000"/><path d="m293.723 281.467c-3.982 10.063-10.273 18.061-17.175 22.876-6.91 4.82-14.321 6.388-20.676 3.872-6.356-2.515-10.687-8.729-12.427-16.973-1.738-8.234-.852-18.371 3.131-28.434 3.982-10.062 10.273-18.061 17.175-22.876 6.91-4.82 14.321-6.388 20.676-3.872 6.356 2.515 10.687 8.73 12.427 16.973 1.738 8.234.852 18.371-3.131 28.434z" fill="#fff" stroke="#000"/><path d="m187.518 277.303c2.049 10.627 6.749 19.652 12.64 25.662 5.897 6.017 12.889 8.931 19.601 7.636 6.712-1.294 12.119-6.598 15.356-14.377 3.233-7.769 4.24-17.895 2.191-28.522-2.049-10.626-6.749-19.651-12.64-25.662-5.897-6.016-12.889-8.93-19.601-7.636-6.711 1.295-12.119 6.599-15.356 14.377-3.233 7.77-4.24 17.896-2.191 28.522z" fill="#fff" stroke="#000"/></g><ellipse cx="264.351" cy="282.137" fill="#161212" rx="18.3726" ry="27.9018" transform="matrix(.92983173 .36798499 -.36798499 .92983173 122.371234 -77.480135)"/><ellipse cx="18.3726" cy="27.9018" fill="#161212" rx="18.3726" ry="27.9018" transform="matrix(-.98191 .189348 .189348 .98191 231.081 250.433)"/><path d="m184.5 341.433c33.5 16 74.8 8.6 122-17-39.6 48.346-97.833 31.477-122 17z" fill="#044237" stroke="#000" stroke-width="2"/><path d="m355.407 331.834c1.672 22.23.335 7.852-1.165 1.852 0 0-2-3-4.067-12-3.749-21.21-7.676-21.182-5.596-19.622 4 3 7.078 8.56 10.828 29.77z" fill="#0d7b67"/><path d="m300 270.932c-3.438 22.026 2.475 1.684 2.382-4.499 0 0-.04 2.381 0-6.854-1.382-18.147-11.052-23.139-9.382-21.146 3.211 3.832 8.184 10.993 7 32.499z" fill="#0d7b67"/><path d="m304 258.933c-1 17.5 0 12.5.5 6.5 0 0 0-8.062 0-10.5-1.5-13.5-9.645-19.078-7.975-17.085 3.211 3.833 3.593 3.023 7.475 21.085z" fill="#0d7b67"/><path d="m208.5 391.433c21 7 46.5 11 79-3.5" stroke="#171618" stroke-width="2"/><path d="m208.5 391.433c21 7 46.5 11 79-3.5" stroke="#171618" stroke-width="2"/><path d="m222.5 399.933c13.667 4 28 6 53.5-2.5" stroke="#171618" stroke-width="2"/><path d="m237 314.373c0-.758-3.134-1.373-7-1.373s-7 .615-7 1.373c0 .759 3.134.616 7 .616s7 .143 7-.616z" fill="#0c6454"/><path d="m249 309.373c0-.758-2.462-1.373-5.5-1.373s-5.5.615-5.5 1.373c0 .759 2.462.616 5.5.616s5.5.143 5.5-.616z" fill="#0c6454"/><path d="m244 303.806c0-.759-1.567-1.373-3.5-1.373s-3.5.614-3.5 1.373c0 .758 1.567.616 3.5.616s3.5.142 3.5-.616z" fill="#0c6454"/><path d="m279 201.433c0 4.97-11.484 5-27.5 5s-30.5-.03-30.5-5c0-4.971 12.484-10 28.5-10s29.5 5.029 29.5 10z" fill="#0c8d76"/><path d="m307.5 407.933c.4-6-1.167-17.5-2-22.5-.5 5.5-1.5 17.2-1.5 20 0 3.5-2 11-5.5 13s0 3.5.5 4.5 5.5-.5 7-2 1-5.5 1.5-13z" fill="#0b7663"/><path d="m255.775 355.801c11.725-14.801-.775-9.801-.775-9.801l-16.5 3-16 1.5c.508 9.999 21.55 20.101 33.275 5.301z" fill="#fff" stroke="#000" stroke-width="2"/></svg>