<svg fill="none" height="500" viewBox="0 0 500 500" width="500" xmlns="http://www.w3.org/2000/svg" xmlns:xlink="http://www.w3.org/1999/xlink"><linearGradient id="a" gradientUnits="userSpaceOnUse" x1="252.549" x2="252.549" y1="173.279" y2="417.198"><stop offset="0" stop-color="#f2ba28"/><stop offset="1" stop-color="#9a7106"/></linearGradient><ellipse cx="250.19" cy="424.777" fill="#f2c47f" rx="177" ry="10" transform="matrix(.99970767 -.02417778 .02417778 .99970767 -10.19703 6.173213)"/><path d="m133.845 333.15c-5.734-8.135-9.177-16.67-10.147-23.86-.976-7.245.579-12.828 4.408-15.527 3.83-2.699 9.611-2.286 16.106 1.069 6.445 3.331 13.325 9.444 19.059 17.578 5.733 8.135 9.176 16.67 10.146 23.86.976 7.245-.579 12.828-4.408 15.527-3.83 2.699-9.611 2.286-16.106-1.069-6.445-3.331-13.325-9.444-19.058-17.578z" fill="#f2ba28" stroke="#000" stroke-width="2"/><path d="m365.271 319.15c5.733-8.134 9.176-16.669 10.146-23.86.976-7.245-.579-12.828-4.408-15.527-3.83-2.699-9.611-2.286-16.106 1.07-6.445 3.33-13.325 9.443-19.058 17.578-5.734 8.134-9.177 16.669-10.146 23.86-.977 7.245.578 12.828 4.407 15.527 3.83 2.699 9.611 2.286 16.106-1.07 6.445-3.33 13.325-9.443 19.059-17.578z" fill="#f2ba28" stroke="#000" stroke-width="2"/><path d="m369.666 305.588c8.772-19.671.484-18.527 0-16.527-10.54 43.5-1.768-10.704-10.54 8.967-8.773 19.672-10.418 30.624-8.044 31.683 3.531 1.574 9.811-4.451 18.584-24.123z" fill="#c99717"/><path d="m310.448 404.423c-9.62-1.006-18.435-.597-24.902.858-3.237.729-5.843 1.71-7.662 2.874-1.827 1.17-2.753 2.45-2.89 3.757s.504 2.751 2.05 4.273c1.539 1.516 3.885 3.015 6.901 4.398 6.026 2.762 14.565 4.987 24.185 5.994 9.619 1.006 18.435.597 24.901-.858 3.238-.729 5.843-1.71 7.663-2.874 1.827-1.17 2.753-2.45 2.89-3.757s-.505-2.751-2.05-4.273c-1.539-1.516-3.885-3.015-6.902-4.398-6.025-2.762-14.565-4.987-24.184-5.994z" fill="#b88b17" stroke="#000" stroke-width="1.51989"/><path d="m343.011 420.701c-4.18-2.28-13.071-6.839-15.199-6.839" stroke="#000" stroke-width="1.51989"/><path d="m328.192 426.021c-1.773-2.533-5.623-7.827-6.839-8.739" stroke="#000" stroke-width="1.51989"/><path d="m198.13 404.423c9.619-1.006 18.435-.597 24.901.858 3.238.729 5.843 1.71 7.663 2.874 1.827 1.17 2.753 2.45 2.89 3.757s-.505 2.751-2.05 4.273c-1.539 1.516-3.885 3.015-6.902 4.398-6.025 2.762-14.565 4.987-24.184 5.994-9.62 1.006-18.435.597-24.902-.858-3.237-.729-5.843-1.71-7.662-2.874-1.827-1.17-2.753-2.45-2.89-3.757s.504-2.751 2.05-4.273c1.539-1.516 3.885-3.015 6.901-4.398 6.026-2.762 14.565-4.987 24.185-5.994z" fill="#b88b17" stroke="#000" stroke-width="1.51989"/><path d="m165.567 420.701c4.179-2.28 13.071-6.839 15.199-6.839" stroke="#000" stroke-width="1.51989"/><path d="m180.385 426.021c1.774-2.533 5.624-7.827 6.84-8.739" stroke="#000" stroke-width="1.51989"/><path d="m308.485 238.873-34.202-40.329c7.223-2.448 21.166-27.909 39.217-32.422 12-3 14.287 2.417 17 5.5 11 12.5-14.058 56.847-22.015 67.251z" fill="#a4790d" stroke="#030303" stroke-width="2"/><path d="m185 249 26.354-50.456c-7.222-2.448-21.165-27.909-39.216-32.422-12-3-14.287 2.417-17 5.5-11 12.5 21.905 66.974 29.862 77.378z" fill="#a4790d" stroke="#030303" stroke-width="2"/><path d="m228.5 174c-25.6 6.8-41.5 61.5-66 114.5-16.5 37.5-15.5 88.147 24.5 108.5 141.5 72 188-68 156-115.5s-82.5-116-114.5-107.5z" fill="url(#a)" stroke="#000" stroke-width="2"/><path d="m189.5 262c23.667 17.5 80.4 42.8 118 4 16.5 72.5-90 148.5-118-4z" fill="#372802" stroke="#000" stroke-width="2"/><path d="m274.304 228.044c2.239 10.585 1.371 20.734-1.79 28.574-3.164 7.848-8.57 13.276-15.372 14.715-6.801 1.439-13.942-1.336-20.013-7.23-6.066-5.888-10.968-14.817-13.207-25.402s-1.372-20.734 1.79-28.574c3.164-7.847 8.57-13.276 15.371-14.715s13.943 1.336 20.014 7.23c6.065 5.889 10.968 14.817 13.207 25.402z" fill="#fff" stroke="#000" stroke-width="2"/><ellipse cx="252.053" cy="244.036" fill="#161212" rx="22.0021" ry="27.9018" transform="matrix(.97835251 -.20694532 .20694532 .97835251 -45.045793 57.443956)"/><g fill="#bc9122"><path d="m185.131 212.067c-4.067-2.857-1.671-4.014 2.674-10.2 4.344-6.185 8.297-11.762 12.364-8.906 4.068 2.857-3.174 5.42-7.519 11.606-4.344 6.185-3.451 10.356-7.519 7.5z"/><path d="m170.131 214.067c-4.067-2.857-1.671-4.014 2.674-10.2 4.344-6.185 8.297-11.762 12.364-8.906 4.068 2.857-3.174 5.42-7.519 11.606-4.344 6.185-3.451 10.356-7.519 7.5z"/><path d="m170.131 198.067c-4.067-2.857-1.671-4.014 2.674-10.2 4.344-6.185 8.297-11.762 12.364-8.906 4.068 2.857-3.174 5.42-7.519 11.606-4.344 6.185-3.451 10.356-7.519 7.5z"/><path d="m159.131 189.067c-4.067-2.857-1.671-4.014 2.674-10.2 4.344-6.185 8.297-11.762 12.364-8.906 4.068 2.857-3.174 5.42-7.519 11.606-4.344 6.185-3.451 10.356-7.519 7.5z"/><path d="m287.355 194.939c3.183-3.818 4.138-1.334 9.943 3.507 5.806 4.841 11.036 9.242 7.853 13.059s-5.138-3.612-10.943-8.453c-5.806-4.841-10.036-4.296-6.853-8.113z"/><path d="m301.355 194.939c3.183-3.818 4.138-1.334 9.943 3.507 5.806 4.841 11.036 9.242 7.853 13.059s-5.138-3.612-10.943-8.453c-5.806-4.841-10.036-4.296-6.853-8.113z"/><path d="m299.355 179.939c3.183-3.818 4.138-1.334 9.943 3.507 5.806 4.841 11.036 9.242 7.853 13.059s-5.138-3.612-10.943-8.453c-5.806-4.841-10.036-4.296-6.853-8.113z"/><path d="m312.355 173.939c3.183-3.818 4.138-1.334 9.943 3.507 5.806 4.841 11.036 9.242 7.853 13.059s-5.138-3.612-10.943-8.453c-5.806-4.841-10.036-4.296-6.853-8.113z"/></g><path d="m224 374c6.667 5.333 29.2 12.8 66 0" stroke="#000" stroke-width="2"/><path d="m230 360.5c24.5 8.5 26 8 49.5-2.5" stroke="#000" stroke-width="2"/><path d="m281.756 397.95c-10.735 8.22-30.473 6.219-40.817 6.219-4.193 0-6.542 5.137.839 6.219 9.226 1.352 26 .27 34.107-1.352 8.107-1.623 19.29-21.361 5.871-11.086z" fill="#76590e"/><path d="m279.449 236.009c-1.418-5.018-1.839-9.293-.938-9.548.901-.254 2.781 3.607 4.2 8.626 1.419 5.018-1.45 10.343-2.351 10.598-.9.255.508-4.658-.911-9.676z" fill="#b68a1a"/><path d="m220.398 245.628c-.775-5.157-2.153-9.225-3.079-9.086-.925.139-1.048 4.432-.274 9.589.775 5.157 5.583 8.828 6.509 8.689.925-.139-2.382-4.035-3.156-9.192z" fill="#b68a1a"/><path d="m285.425 237.601c-.262-5.209.284-9.469 1.219-9.516s1.905 4.137 2.166 9.346c.262 5.208-3.725 9.758-4.66 9.805-.935.046 1.536-4.427 1.275-9.635z" fill="#b68a1a"/><path d="m215.609 249.541c-1.908-4.854-4.16-8.511-5.032-8.169-.871.343-.031 4.555 1.877 9.408 1.907 4.854 7.414 7.357 8.286 7.014.871-.342-3.224-3.4-5.131-8.253z" fill="#b68a1a"/><path d="m268.861 295.042c13.139-11.542.639-9.542.639-9.542l-16.5 1-16.199-1.824c-1.04 9.958 18.921 21.907 32.06 10.366z" fill="#fff" stroke="#000" stroke-width="2"/></svg>