<svg fill="none" height="500" viewBox="0 0 500 500" width="500" xmlns="http://www.w3.org/2000/svg" xmlns:xlink="http://www.w3.org/1999/xlink"><linearGradient id="a" gradientUnits="userSpaceOnUse" x1="236" x2="236" y1="102" y2="310"><stop offset="0" stop-color="#035c9c"/><stop offset="1" stop-color="#0a3d62"/></linearGradient><ellipse cx="250.19" cy="428.709" fill="#f2c47f" rx="177" ry="10" transform="matrix(.99970767 -.02417778 .02417778 .99970767 -10.292097 6.174362)"/><path d="m141.372 229.537-4.216-52.711c-6.845 3.361-34.69-4.846-50.6662 4.692-10.6208 6.34-8.4196 11.792-8.1671 15.891 1.0237 16.62 50.0703 30.368 63.0493 32.128z" fill="#011523" stroke="#030303" stroke-width="2"/><path d="m125.35 183.493c-4.95-.459-3.874 1.975-4.572 9.501-.699 7.527-1.301 14.336 3.648 14.795s1.093-6.185 1.792-13.711c.698-7.527 4.081-10.125-.868-10.585z" fill="#173f5c"/><path d="m115.428 193.371c-4.949-.46-3.873 1.974-4.572 9.501-.698 7.526-1.301 14.335 3.649 14.794 4.949.46 1.093-6.185 1.791-13.711.699-7.526 4.081-10.125-.868-10.584z" fill="#173f5c"/><path d="m106.262 181.33c-4.949-.46-3.873 1.974-4.571 9.501-.699 7.526-1.301 14.335 3.648 14.794 4.949.46 1.093-6.185 1.791-13.711.699-7.526 4.082-10.125-.868-10.584z" fill="#173f5c"/><path d="m92.8163 186.25c-4.9493-.46-3.8733 1.974-4.5718 9.501-.6986 7.526-1.301 14.335 3.6483 14.794 4.9494.46 1.0931-6.185 1.7916-13.711s4.0813-10.125-.8681-10.584z" fill="#173f5c"/><path d="m332.878 229.537 4.216-52.711c6.845 3.361 34.69-4.846 50.666 4.692 10.621 6.34 8.42 11.792 8.168 15.891-1.024 16.62-50.07 30.368-63.05 32.128z" fill="#011523" stroke="#030303" stroke-width="2"/><path d="m348.901 183.493c4.949-.459 3.873 1.975 4.572 9.501.698 7.527 1.301 14.336-3.649 14.795-4.949.459-1.093-6.185-1.791-13.711-.699-7.527-4.082-10.125.868-10.585z" fill="#173f5c"/><path d="m358.822 193.371c4.949-.46 3.873 1.974 4.572 9.501.698 7.526 1.301 14.335-3.648 14.794-4.95.46-1.093-6.185-1.792-13.711s-4.081-10.125.868-10.584z" fill="#173f5c"/><path d="m367.988 181.33c4.949-.46 3.873 1.974 4.572 9.501.698 7.526 1.301 14.335-3.649 14.794-4.949.46-1.093-6.185-1.791-13.711-.699-7.526-4.081-10.125.868-10.584z" fill="#173f5c"/><path d="m381.434 186.25c4.949-.46 3.873 1.974 4.572 9.501.698 7.526 1.301 14.335-3.649 14.794-4.949.46-1.093-6.185-1.791-13.711-.699-7.526-4.081-10.125.868-10.584z" fill="#173f5c"/><rect fill="#0c0c0c" height="68" rx="3.5" width="7" x="223" y="299"/><rect fill="#0c0c0c" height="68" rx="3.5" width="7" x="242" y="298"/><rect fill="url(#a)" height="208" rx="33" width="208" x="132" y="102"/><circle cx="236" cy="174" fill="#fff" r="52" stroke="#000" stroke-width="2"/><circle cx="236" cy="174" fill="#15649c" r="31" stroke="#000" stroke-width="2"/><circle cx="236" cy="174" fill="#010101" r="19"/><circle cx="247.5" cy="164.5" fill="#fff" r="8.5" stroke="#000" stroke-width="2"/><g fill="#4e4e4e"><path d="m211 356h14v10h-14z"/><path d="m211 369h14v10h-14z"/><path d="m211 382h14v10h-14z"/><path d="m211 395h14v10h-14z"/><path d="m211 408h14v10h-14z"/><path d="m247 356h14v10h-14z"/><path d="m247 369h14v10h-14z"/><path d="m247 382h14v10h-14z"/><path d="m247 395h14v10h-14z"/><path d="m247 408h14v10h-14z"/></g><path d="m218 351h36v70h-36z" fill="#131313"/><path d="m173 214c23.667 17.5 80.4 42.8 118 4 16.5 72.5-90 148.5-118-4z" fill="#0f0f0f" stroke="#000" stroke-width="2"/><path d="m243 273.5c13.139-11.541 16.5-36.5 16.5-36.5s-13.691 2.473-22.5 2c-8.337-.447-21-4-21-4-1.04 9.959 13.861 50.042 27 38.5z" fill="#fff" stroke="#000" stroke-width="2"/></svg>