<svg fill="none" height="500" viewBox="0 0 500 500" width="500" xmlns="http://www.w3.org/2000/svg" xmlns:xlink="http://www.w3.org/1999/xlink"><linearGradient id="a" gradientUnits="userSpaceOnUse" x1="236" x2="236" y1="102" y2="310"><stop offset="0" stop-color="#035c9c"/><stop offset="1" stop-color="#0a3d62"/></linearGradient><ellipse cx="250.19" cy="428.709" fill="#f2c47f" rx="177" ry="10" transform="matrix(.99970767 -.02417778 .02417778 .99970767 -10.292097 6.174362)"/><rect fill="#0c0c0c" height="68" rx="3.5" width="7" x="223" y="299"/><rect fill="#0c0c0c" height="68" rx="3.5" width="7" x="242" y="298"/><path d="m132 135c0-18.225 14.775-33 33-33h71c57.438 0 104 46.562 104 104v71c0 18.225-14.775 33-33 33h-71c-57.438 0-104-46.562-104-104z" fill="url(#a)"/><circle cx="184" cy="159" fill="#fff" r="30" stroke="#000" stroke-width="2"/><circle cx="239" cy="215" fill="#fff" r="30" stroke="#000" stroke-width="2"/><circle cx="296" cy="268" fill="#fff" r="30" stroke="#000" stroke-width="2"/><circle cx="184" cy="159" fill="#15649c" r="18" stroke="#000" stroke-width="2"/><circle cx="239" cy="215" fill="#15649c" r="18" stroke="#000" stroke-width="2"/><circle cx="296" cy="268" fill="#15649c" r="18" stroke="#000" stroke-width="2"/><circle cx="184" cy="159" fill="#010101" r="11"/><circle cx="239" cy="215" fill="#010101" r="11"/><circle cx="296" cy="268" fill="#010101" r="11"/><circle cx="190.5" cy="153.5" fill="#fff" r="4.5" stroke="#000" stroke-width="2"/><circle cx="245.5" cy="209.5" fill="#fff" r="4.5" stroke="#000" stroke-width="2"/><circle cx="302.5" cy="262.5" fill="#fff" r="4.5" stroke="#000" stroke-width="2"/><g fill="#4e4e4e"><path d="m211 356h14v10h-14z"/><path d="m211 369h14v10h-14z"/><path d="m211 382h14v10h-14z"/><path d="m211 395h14v10h-14z"/><path d="m211 408h14v10h-14z"/><path d="m247 356h14v10h-14z"/><path d="m247 369h14v10h-14z"/><path d="m247 382h14v10h-14z"/><path d="m247 395h14v10h-14z"/><path d="m247 408h14v10h-14z"/></g><path d="m218 351h36v70h-36z" fill="#131313"/></svg>