<svg fill="none" height="500" viewBox="0 0 500 500" width="500" xmlns="http://www.w3.org/2000/svg" xmlns:xlink="http://www.w3.org/1999/xlink"><linearGradient id="a" gradientUnits="userSpaceOnUse" x1="254" x2="254" y1="249" y2="425"><stop offset="0" stop-color="#eb1e80"/><stop offset="1" stop-color="#9e0d53"/></linearGradient><ellipse cx="250.19" cy="424.777" fill="#f2c47f" rx="177" ry="10" transform="matrix(.99970767 -.02417778 .02417778 .99970767 -10.19703 6.173213)"/><g stroke="#000"><path d="m322.448 400.423c-9.62-1.006-18.435-.597-24.902.858-3.237.729-5.843 1.71-7.662 2.874-1.827 1.17-2.753 2.45-2.89 3.757s.504 2.751 2.05 4.273c1.539 1.516 3.885 3.015 6.901 4.398 6.026 2.762 14.565 4.987 24.185 5.994 9.619 1.006 18.435.597 24.901-.858 3.238-.729 5.843-1.71 7.663-2.874 1.827-1.17 2.753-2.45 2.89-3.757s-.505-2.751-2.05-4.273c-1.539-1.516-3.885-3.015-6.902-4.398-6.025-2.762-14.565-4.987-24.184-5.994z" fill="#b00658" stroke-width="1.51989"/><path d="m355.011 416.701c-4.18-2.28-13.071-6.839-15.199-6.839" stroke-width="1.51989"/><path d="m340.192 422.021c-1.773-2.533-5.623-7.827-6.839-8.739" stroke-width="1.51989"/><path d="m183.13 401.423c9.619-1.006 18.435-.597 24.901.858 3.238.729 5.843 1.71 7.663 2.874 1.827 1.17 2.753 2.45 2.89 3.757s-.505 2.751-2.05 4.273c-1.539 1.516-3.885 3.015-6.902 4.398-6.025 2.762-14.565 4.987-24.184 5.994-9.62 1.006-18.435.597-24.902-.858-3.237-.729-5.843-1.71-7.662-2.874-1.827-1.17-2.753-2.45-2.89-3.757s.504-2.751 2.05-4.273c1.539-1.516 3.885-3.015 6.901-4.398 6.026-2.762 14.565-4.987 24.185-5.994z" fill="#b00658" stroke-width="1.51989"/><path d="m150.567 417.701c4.179-2.28 13.071-6.839 15.199-6.839" stroke-width="1.51989"/><path d="m165.385 423.021c1.774-2.533 5.624-7.827 6.84-8.739" stroke-width="1.51989"/><path d="m330.5 247-18 25.5 3 3.5 18-26.5z" fill="#eb1e80" stroke-width="2"/><path d="m192 275.5-24-24 2.5-3 25 23.5z" fill="#eb1e80" stroke-width="2"/><circle cx="254" cy="337" fill="url(#a)" r="87" stroke-width="2"/><circle cx="158" cy="240" fill="#eb1e80" r="15" stroke-width="2"/><circle cx="342" cy="237" fill="#eb1e80" r="15" stroke-width="2"/><path d="m238 366h40.5c-2.833 6.5-11.1 20.2-23.5 19s-16.5-13.167-17-19z" fill="#ffa5a5" stroke-width="2"/><path d="m268 375c9.5-11-3.5-8.762-3.5-8.762l-8.66.421-10.34-.421c-1.04 9.959 13 19.762 22.5 8.762z" fill="#fff" stroke-width="2"/><path d="m300 309c0 5.504-4.383 10.744-12.05 14.666-7.613 3.895-18.201 6.334-29.95 6.334s-22.337-2.439-29.95-6.334c-7.667-3.922-12.05-9.162-12.05-14.666s4.383-10.744 12.05-14.666c7.613-3.895 18.201-6.334 29.95-6.334s22.337 2.439 29.95 6.334c7.667 3.922 12.05 9.162 12.05 14.666z" fill="#fff" stroke-width="2"/></g><path d="m290.5 322.5c-.5-.5-6 7-32.5 7.5-22.5-3-30-5.5-30.5-7.5 0-8.008 13.931-21.5 30.5-21.5s32.5 13.492 32.5 21.5z" fill="#000"/><path d="m193.5 360c-1 3.333-2.4 9.9 0 9.5s6.667-3.833 8.5-5.5" stroke="#000" stroke-width="2"/><path d="m214.325 375c-1 3.333-2.4 9.9 0 9.5s6.667-3.833 8.5-5.5" stroke="#000" stroke-width="2"/><path d="m306.639 362.618c2.602 2.556 8.002 7.08 8.79 4.73.787-2.35-.331-7.883-.989-10.356" stroke="#000" stroke-width="2"/><path d="m286.639 378.618c2.602 2.556 8.002 7.08 8.79 4.73.787-2.35-.331-7.883-.989-10.356" stroke="#000" stroke-width="2"/><path d="m283 266c0 4.971-11.484 5-27.5 5s-30.5-.029-30.5-5 12.484-10 28.5-10 29.5 5.029 29.5 10z" fill="#c51b6d"/><path d="m352 234c0 4.971-4.158 5-9.957 5s-11.043-.029-11.043-5 4.52-10 10.319-10 10.681 5.029 10.681 10z" fill="#c21e6d"/><path d="m169 242c0-4.971-4.158-5-9.957-5s-11.043.029-11.043 5 4.52 10 10.319 10 10.681-5.029 10.681-10z" fill="#c21e6d"/><path d="m225 408c0-4.971 13.484 6.5 29.5 6.5s28.5-11.471 28.5-6.5-12.484 10-28.5 10-29.5-5.029-29.5-10z" fill="#7d053f"/></svg>