<svg fill="none" height="500" viewBox="0 0 500 500" width="500" xmlns="http://www.w3.org/2000/svg" xmlns:xlink="http://www.w3.org/1999/xlink"><linearGradient id="a" gradientUnits="userSpaceOnUse" x1="232.978" x2="294" y1="184.581" y2="408.942"><stop offset="0" stop-color="#6400c9"/><stop offset="1" stop-color="#410281"/></linearGradient><path d="m166.028 189.186c-34.81-21.179-36.084 85.018-6.467 109.309 24.991 4.284 43.445-.602 49.798-3.565l4.06-26.306c17.544 8.25 38.108 7.764 51.588.046l8.066 24.519c29.064 8.231 59.658-2.625 60.955-5.91 11.784-29.856 9.67 18.893 15.83-13.589 5.824-30.709-14.103-103.466-36.112-92.294-85.72 43.514-75.681 51.621-147.718 7.79z" fill="#6400c9" stroke="#000" stroke-width="2"/><path d="m137.392 207.721 51.677 11.212c-1.237-7.524-2.864-30.882 7.931-47.433l31-53-69.468 51.107c-10.357 8.789-18.459 24.5-21.14 38.114z" fill="#330b5a" stroke="#030303" stroke-width="2"/><path d="m166.361 202.405c1.194-4.825-1.374-4.125-8.711-5.94-7.338-1.816-13.98-3.429-15.174 1.396s5.952 2.005 13.29 3.821c7.337 1.815 9.401 5.548 10.595.723z" fill="#4b1580"/><path d="m176.455 196.539c1.901-4.592-.742-4.284-7.726-7.175s-13.311-5.478-15.212-.885c-1.902 4.592 5.586 2.871 12.57 5.762s8.467 6.891 10.368 2.298z" fill="#4b1580"/><path d="m188.886 191.023c2.168-4.473-.489-4.32-7.291-7.617s-12.966-6.252-15.134-1.779 5.407 3.195 12.209 6.492 8.048 7.377 10.216 2.904z" fill="#4b1580"/><path d="m189.45 176.032c2.168-4.473-.489-4.32-7.291-7.617-6.801-3.297-12.965-6.252-15.133-1.779s5.407 3.196 12.209 6.492c6.802 3.297 8.047 7.377 10.215 2.904z" fill="#4b1580"/><path d="m199.02 161.431c2.168-4.473.222-3.976-4.266-6.151-4.489-2.176-8.56-4.117-10.728.356s3.491 2.267 7.98 4.443c4.488 2.175 4.846 5.825 7.014 1.352z" fill="#4b1580"/><path d="m337.892 209.619-51.677 11.212c1.237-7.524 2.864-30.882-7.931-47.433l-31-53 69.469 51.107c10.356 8.789 18.459 24.5 21.139 38.114z" fill="#330b5a" stroke="#030303" stroke-width="2"/><path d="m308.923 204.303c-1.193-4.825 1.374-4.125 8.712-5.941 7.337-1.815 13.98-3.428 15.173 1.397 1.194 4.825-5.952 2.005-13.289 3.821-7.338 1.815-9.402 5.548-10.596.723z" fill="#4b1580"/><path d="m298.829 198.437c-1.901-4.592.742-4.284 7.726-7.175s13.311-5.478 15.213-.885c1.901 4.592-5.586 2.871-12.57 5.762s-8.468 6.891-10.369 2.298z" fill="#4b1580"/><path d="m286.399 192.921c-2.168-4.473.489-4.32 7.29-7.617 6.802-3.297 12.966-6.252 15.134-1.779s-5.407 3.195-12.209 6.492-8.047 7.377-10.215 2.904z" fill="#4b1580"/><path d="m285.834 177.93c-2.168-4.473.489-4.32 7.291-7.617s12.966-6.252 15.134-1.779-5.408 3.196-12.21 6.492c-6.801 3.297-8.047 7.377-10.215 2.904z" fill="#4b1580"/><path d="m276.264 163.329c-2.168-4.473-.222-3.976 4.266-6.151 4.489-2.176 8.561-4.117 10.729.356s-3.492 2.267-7.98 4.442c-4.489 2.176-4.847 5.826-7.015 1.353z" fill="#4b1580"/><path d="m157.171 227.639c-48.16 38-35.84 118.442-4.84 140.942 25.2 2.8 43.333-3.167 49.5-6.5l2.5-26.5c18 7.2 38.5 5.499 51.5-3.001l9.5 24.001c29.5 6.5 59.399-6.144 60.5-9.5 10-30.5 10.769 18.288 15-14.501 4-30.999-16.886-122.099-41.5-123.941-80.16-6-77.66-7.5-142.16 19z" fill="#6400c9" stroke="#000" stroke-width="2"/><ellipse cx="250.19" cy="416.718" fill="#f2c47f" rx="177" ry="10" transform="matrix(.99970767 -.02417778 .02417778 .99970767 -10.002181 6.170857)"/><g stroke="#000" stroke-width="2"><path d="m129.987 326.122c-3.29 9.392-8.237 17.154-13.526 22.12-5.33 5.004-10.777 6.982-15.199 5.433-4.4214-1.549-7.4439-6.494-8.4857-13.73-1.0339-7.182-.0552-16.333 3.2351-25.725s8.2366-17.154 13.5256-22.12c5.33-5.004 10.778-6.982 15.199-5.433 4.422 1.549 7.444 6.495 8.486 13.73 1.034 7.182.055 16.333-3.235 25.725z" fill="#500996"/><path d="m367.559 299.396c4.53 8.861 6.737 17.796 6.684 25.051-.054 7.311-2.38 12.619-6.552 14.752-4.171 2.132-9.836.909-15.794-3.328-5.912-4.205-11.862-11.227-16.392-20.088s-6.737-17.796-6.684-25.051c.054-7.31 2.38-12.618 6.552-14.751 4.171-2.133 9.836-.91 15.794 3.328 5.912 4.205 11.862 11.226 16.392 20.087z" fill="#500996"/><path d="m131 203.442c-46-7-5 193.5 26 216 25.2 2.8 43.333-3.167 49.5-6.5l3.5-24.001c18 7.2 38.5 5.5 51.5-3l9.5 24c29.5 6.5 59.4.857 60.5-2.499 10-30.5 14.269-99.212 18.5-132 4-31 13.369-99.287-9.5-90.001-82.5 33.501-125.5 46.001-209.5 18.001z" fill="url(#a)"/><path d="m225 359 4.5-22.558-33.5 1.5c-.5 10 18.333 22.892 29 21.058z" fill="#fff"/><path d="m248.5 356.5-8.5-21.5 32.5-4.5c.5 10-13.333 27.833-24 26z" fill="#fff"/><path d="m177.5 336.442c2 0 38.5 7 113-10.5"/><path d="m290.844 297.344c-7.279 7.5-16.096 12.073-24.433 13.438-8.338 1.366-16.124-.479-21.508-5.704s-7.461-12.952-6.346-21.327 5.422-17.325 12.701-24.825c7.278-7.5 16.095-12.073 24.433-13.439 8.338-1.365 16.124.48 21.508 5.705s7.461 12.952 6.346 21.327-5.423 17.325-12.701 24.825z" fill="#fff"/><path d="m218.011 266.561c6.388 8.272 9.659 17.65 9.824 26.097s-2.769 15.891-8.707 20.477c-5.938 4.585-13.883 5.542-22.013 3.246-8.131-2.296-16.377-7.833-22.765-16.105-6.388-8.271-9.659-17.65-9.824-26.097s2.769-15.891 8.707-20.477c5.938-4.585 13.883-5.541 22.013-3.246 8.131 2.296 16.377 7.833 22.765 16.105z" fill="#fff"/></g><ellipse cx="260.572" cy="292.062" fill="#161212" rx="18.3726" ry="20.6586" transform="matrix(.71761719 .69643777 -.69643777 .71761719 276.984062 -98.998895)"/><ellipse cx="206.168" cy="298.022" fill="#161212" rx="18.3726" ry="20.6586" transform="matrix(.79147962 -.61119556 .61119556 .79147962 -139.159493 188.152627)"/><path d="m261.5 385.942c3.833-1.833 12.5-6.7 16.5-11.5" stroke="#0d0a11" stroke-width="2"/><path d="m192 379.86c3.423 2.517 11.799 7.869 17.917 9.136" stroke="#0d0a11" stroke-width="2"/><path d="m134.958 235.942c0 21.539-3.134 39-7 39s-7-17.461-7-39 3.134-17.5 7-17.5 7-4.039 7 17.5z" fill="#791ed5"/><path d="m270.979 240.637c-4.7 2.258-8.84 3.406-9.245 2.562s3.076-3.359 7.777-5.618c4.7-2.258 10.439-.345 10.844.499.406.843-4.675.298-9.376 2.557z" fill="#791ed5"/><path d="m203.375 248.391c3.85 3.518 7.483 5.81 8.114 5.118.631-.691-1.978-4.102-5.828-7.62s-9.896-3.34-10.528-2.649c-.631.691 4.392 1.634 8.242 5.151z" fill="#791ed5"/><path d="m370 313.442c5.914 20.711.717 14.997-3 16.058-3.717 1.062-2.586 10.653-8.5-10.058s-6-31.786-3.5-32.5c3.717-1.062 9.086 5.789 15 26.5z" fill="#791ed5"/><path d="m242 309.069c0 .758-3.134 1.373-7 1.373s-7-.615-7-1.373c0-.759 3.134-.617 7-.617s7-.142 7 .617z" fill="#791ed5"/><path d="m240 313.069c0 .758-2.462 1.373-5.5 1.373s-5.5-.615-5.5-1.373c0-.759 2.462-.617 5.5-.617s5.5-.142 5.5.617z" fill="#791ed5"/><path d="m238 317.069c0 .758-1.567 1.373-3.5 1.373s-3.5-.615-3.5-1.373c0-.759 1.567-.617 3.5-.617s3.5-.142 3.5.617z" fill="#791ed5"/></svg>