<svg fill="none" height="500" viewBox="0 0 500 500" width="500" xmlns="http://www.w3.org/2000/svg" xmlns:xlink="http://www.w3.org/1999/xlink"><linearGradient id="a" gradientUnits="userSpaceOnUse" x1="252.75" x2="252.75" y1="125.34" y2="423.796"><stop offset="0" stop-color="#9e05e7"/><stop offset="1" stop-color="#ff9800"/></linearGradient><path d="m148.5 165c-33.6 55.6-62 219.5-62 219.5s-14.1819 50.51-4.5 37c43-60 28.5-40.5 43-61s12 11 40.5 40 15.5-32.5 36-45.5 39 7 70.5 26 23-23.5 34-37.5 35.5-9 50 0l.163.101c14.516 9.011 38.442 23.862 66.337 13.899 28-10-86-83.5-120-158.5s-112-103.4999-154-34z" fill="url(#a)" stroke="#000" stroke-width="2"/><ellipse cx="250.19" cy="428.709" fill="#f2c47f" rx="177" ry="10" transform="matrix(.99970767 -.02417778 .02417778 .99970767 -10.292097 6.174362)"/><circle cx="209" cy="198" fill="#fff" r="43" stroke="#000" stroke-width="2"/><circle cx="209" cy="198" fill="#7d0071" r="25" stroke="#000" stroke-width="2"/><circle cx="209" cy="198" fill="#010101" r="16"/><g stroke="#000" stroke-width="2"><circle cx="219" cy="190" fill="#fff" r="7"/><path d="m271.81 280.735c-15.29 37.167-93.611 40.112-111.5 5s23.852-8.784 52.913-9.103c29.708-.326 73.877-33.063 58.587 4.103z" fill="#111"/><path d="m226.775 287.987c15.64-20.042 3.93-13.962.535-13.252s-9.273 2.937-16 2.5c-6.963-.452-17.895-2.79-17.895-2.79-1.04 9.958 17.721 33.583 33.36 13.542z" fill="#fff"/></g></svg>