<svg fill="none" height="500" viewBox="0 0 500 500" width="500" xmlns="http://www.w3.org/2000/svg" xmlns:xlink="http://www.w3.org/1999/xlink"><linearGradient id="a" gradientUnits="userSpaceOnUse" x1="252.75" x2="252.75" y1="125.34" y2="423.796"><stop offset="0" stop-color="#9e05e7"/><stop offset="1" stop-color="#ff9800"/></linearGradient><path d="m304.293 111.379c-10.639 41.368-.116 23.431-20.72 69.717l-34.086-40.428c8.993-3.019 18.116-2.006 54.806-29.289z" fill="#061815" stroke="#030303" stroke-width="2"/><g fill="#444"><path d="m283.876 158.58c3.386-3.639.801-4.273-4.733-9.421-5.535-5.148-10.56-9.782-13.945-6.143-3.386 3.639 4.231 4.642 9.765 9.79 5.535 5.148 5.528 9.414 8.913 5.774z"/><path d="m288.69 147.546c3.35-3.673-.023-3.357-3.731-6.738-3.707-3.381-5.719-6.815-9.069-3.143-3.349 3.673 2.722 3.182 6.429 6.563 3.707 3.382 3.022 6.99 6.371 3.318z"/><path d="m293.758 137.532c1.496-2.003-1.297-2.022-3.008-3.994-1.712-1.971-1.927-3.996-4.651-1.108-2.346 2.488 1.027 1.972 2.738 3.943 1.712 1.972 1.168 4.417 4.921 1.159z"/></g><path d="m104.083 127.538c18.668 38.419 4.781 22.937 34.194 64.191l25.349-46.408c-9.415-1.166-18.153 1.644-59.543-17.783z" fill="#061815" stroke="#030303" stroke-width="2"/><path d="m133.494 169.725c-4.042-2.892-1.636-4.028 2.762-10.175 4.398-6.148 8.399-11.69 12.442-8.798 4.042 2.892-3.222 5.392-7.62 11.539-4.398 6.148-3.541 10.327-7.584 7.434z" fill="#444"/><path d="m126.578 159.871c-4.014-2.932-.645-3.294 2.314-7.346 2.96-4.051 4.248-7.818 8.262-4.886s-2.034 3.66-4.993 7.712-1.569 7.452-5.583 4.52z" fill="#444"/><path d="m119.617 151.067c-1.865-1.665.868-2.24 2.153-4.513 1.284-2.272 1.092-4.299 4.337-2.012 2.794 1.971-.614 2.137-1.899 4.41-1.284 2.273-.263 4.561-4.591 2.115z" fill="#444"/><path d="m148.5 165c-33.6 55.6-61.9999 219.5-61.9999 219.5s-14.1819 50.51-4.5 37c42.9999-60 28.4999-40.5 42.9999-61s12 11 40.5 40 15.5-32.5 36-45.5 39 7 70.5 26 23-23.5 34-37.5 35.5-9 50 0l.163.101c14.517 9.011 38.442 23.862 66.337 13.899 28-10-86-83.5-120-158.5s-112-103.4999-154-34z" fill="url(#a)" stroke="#000" stroke-width="2"/><path d="m270.946 219.669c-2.049 10.626-6.75 19.652-12.64 25.662-5.897 6.017-12.889 8.93-19.601 7.636-6.654-1.283-12.765-7.897-16.716-17.142-3.926-9.189-5.583-20.693-3.543-31.27 2.08-10.786 5.127-24.469 9.415-35.096 2.147-5.321 4.574-9.792 7.286-12.75 2.699-2.942 5.557-4.268 8.664-3.669 3.185.614 6.782 3.578 10.368 8.341 3.548 4.712 6.944 10.997 9.78 17.897 5.69 13.846 9.012 29.886 6.987 40.391z" fill="#fff" stroke="#000" stroke-width="2"/><ellipse cx="240.14" cy="223.675" fill="#161212" rx="18.3726" ry="27.9018" transform="matrix(.98191017 .18934737 -.18934737 .98191017 46.696366 -41.423634)"/><path d="m146.586 223.669c2.049 10.626 6.75 19.652 12.64 25.662 5.897 6.017 12.889 8.93 19.601 7.636 6.654-1.283 12.765-7.897 16.716-17.142 3.926-9.189 5.583-20.693 3.543-31.27-2.08-10.786-5.127-24.469-9.415-35.096-2.147-5.321-4.574-9.792-7.286-12.75-2.699-2.942-5.557-4.268-8.664-3.669-3.185.614-6.782 3.578-10.368 8.341-3.548 4.712-6.944 10.997-9.78 17.897-5.69 13.846-9.012 29.886-6.987 40.391z" fill="#fff" stroke="#000" stroke-width="2"/><ellipse cx="18.3726" cy="27.9018" fill="#161212" rx="18.3726" ry="27.9018" transform="matrix(-.98191 .189348 .189348 .98191 190.149 196.799)"/><path d="m260.692 290.143c-15.291 37.167-83.291 37.167-101.179 2.055-17.889-35.112 21.241 4.328 50.302 4.008 29.708-.326 66.167-43.23 50.877-6.063z" fill="#101010" stroke="#000" stroke-width="2"/><path d="m222.762 305.851c15.639-20.042 1.64-12.041 1.64-12.041s-10.773 3.936-17.5 3.499c-6.963-.452-17.5-4.999-17.5-4.999-1.04 9.958 17.721 33.583 33.36 13.541z" fill="#fff" stroke="#000" stroke-width="2"/><ellipse cx="250.19" cy="428.709" fill="#f2c47f" rx="177" ry="10" transform="matrix(.99970767 -.02417778 .02417778 .99970767 -10.292097 6.174362)"/></svg>