<svg fill="none" height="500" viewBox="0 0 500 500" width="500" xmlns="http://www.w3.org/2000/svg" xmlns:xlink="http://www.w3.org/1999/xlink"><linearGradient id="a" gradientUnits="userSpaceOnUse" x1="252.75" x2="252.75" y1="125.34" y2="423.796"><stop offset="0" stop-color="#9e05e7"/><stop offset="1" stop-color="#ff9800"/></linearGradient><path d="m148.5 165c-33.6 55.6-62 219.5-62 219.5s-14.1819 50.51-4.5 37c43-60 28.5-40.5 43-61s12 11 40.5 40 15.5-32.5 36-45.5 39 7 70.5 26 23-23.5 34-37.5 35.5-9 50 0l.163.101c14.516 9.011 38.442 23.862 66.337 13.899 28-10-86-83.5-120-158.5s-112-103.4999-154-34z" fill="url(#a)" stroke="#000" stroke-width="2"/><path d="m270.946 219.669c-2.049 10.626-6.75 19.652-12.64 25.662-5.897 6.017-12.889 8.93-19.601 7.636-6.654-1.283-12.765-7.897-16.716-17.142-3.926-9.189-5.583-20.693-3.543-31.27 2.08-10.786 5.127-24.469 9.415-35.096 2.147-5.321 4.574-9.792 7.286-12.75 2.699-2.942 5.557-4.268 8.664-3.669 3.185.614 6.782 3.578 10.368 8.341 3.548 4.712 6.944 10.997 9.78 17.897 5.69 13.846 9.012 29.886 6.987 40.391z" fill="#fff" stroke="#000" stroke-width="2"/><ellipse cx="240.14" cy="223.675" fill="#161212" rx="18.3726" ry="27.9018" transform="matrix(.98191017 .18934737 -.18934737 .98191017 46.696366 -41.423634)"/><path d="m146.586 223.669c2.049 10.626 6.75 19.652 12.64 25.662 5.897 6.017 12.889 8.93 19.601 7.636 6.654-1.283 12.765-7.897 16.716-17.142 3.926-9.189 5.583-20.693 3.543-31.27-2.08-10.786-5.127-24.469-9.415-35.096-2.147-5.321-4.574-9.792-7.286-12.75-2.699-2.942-5.557-4.268-8.664-3.669-3.185.614-6.782 3.578-10.368 8.341-3.548 4.712-6.944 10.997-9.78 17.897-5.69 13.846-9.013 29.886-6.987 40.391z" fill="#fff" stroke="#000" stroke-width="2"/><ellipse cx="18.3726" cy="27.9018" fill="#161212" rx="18.3726" ry="27.9018" transform="matrix(-.98191 .189348 .189348 .98191 190.149 196.799)"/><ellipse cx="250.19" cy="428.709" fill="#f2c47f" rx="177" ry="10" transform="matrix(.99970767 -.02417778 .02417778 .99970767 -10.292097 6.174362)"/></svg>