<svg fill="none" height="500" viewBox="0 0 500 500" width="500" xmlns="http://www.w3.org/2000/svg"><ellipse cx="250.19" cy="448.709" fill="#f2c47f" rx="177" ry="10" transform="matrix(.99970767 -.02417778 .02417778 .99970767 -10.775653 6.180209)"/><path d="m274.078 111.643-52.78-3.228c3.232-6.906-5.495-34.593 3.741-50.7452 6.14-10.7377 11.633-8.6391 15.736-8.4635 16.636.7121 31.301 49.4921 33.303 62.4367z" fill="#0a4100" stroke="#030303" stroke-width="2"/><path d="m227.743 96.4854c-.552-4.9398 1.902-3.9096 9.414-4.7491 7.512-.8394 14.308-1.5694 14.86 3.3705.552 4.9402-6.163 1.2088-13.675 2.0482-7.512.8395-10.047 4.27-10.599-.6696z" fill="#052500"/><path d="m237.433 86.381c-.552-4.9399 1.902-3.9097 9.414-4.7492 7.512-.8394 14.308-1.5693 14.86 3.3705.552 4.9399-6.163 1.2088-13.675 2.0482-7.512.8395-10.047 4.2703-10.599-.6695z" fill="#052500"/><path d="m225.222 77.4425c-.552-4.9399 1.902-3.9097 9.414-4.7492 7.512-.8394 14.308-1.5693 14.86 3.3705.552 4.9399-6.163 1.2088-13.675 2.0482-7.512.8395-10.047 4.2703-10.599-.6695z" fill="#052500"/><path d="m229.889 63.9063c-.552-4.9398 1.902-3.9096 9.414-4.7491 7.512-.8394 14.308-1.5694 14.86 3.3705s-6.163 1.2088-13.675 2.0482c-7.512.8395-10.047 4.2703-10.599-.6696z" fill="#052500"/><g stroke="#000" stroke-width="2"><rect fill="#127d00" height="147" rx="11.5" width="23" x="210" y="300"/><rect fill="#127d00" height="147" rx="11.5" width="23" x="267" y="300"/><rect fill="#127d00" height="268" rx="67" width="134" x="183" y="100"/><circle cx="250" cy="185" fill="#fff" r="43"/><circle cx="250" cy="185" fill="#127d00" r="25"/></g><circle cx="250" cy="185" fill="#010101" r="16"/><circle cx="260" cy="177" fill="#fff" r="7" stroke="#000" stroke-width="2"/><path d="m197 265c22.5 9.333 56.2 22.4 113 0-58.4 90.4-91.167 37.667-113 0z" fill="#0c2c07" stroke="#000" stroke-width="2"/><path d="m252.017 298.5-1.017-20.5-16.5-1.5-14.491-2c-.5 10 21.341 25.833 32.008 24z" fill="#fff" stroke="#000" stroke-width="2"/><path d="m256.409 299.159 1.247-20.759 24.344-4.4c-1.297 16.127-19.407 25.061-25.591 25.159z" fill="#fff" stroke="#000" stroke-width="2"/><path d="m279 125c0 4.971-11.484 5-27.5 5s-30.5-.029-30.5-5 12.484-10 28.5-10 29.5 5.029 29.5 10z" fill="#135808"/></svg>