<svg fill="none" height="500" viewBox="0 0 500 500" width="500" xmlns="http://www.w3.org/2000/svg"><ellipse cx="250.19" cy="448.709" fill="#f2c47f" rx="177" ry="10" transform="matrix(.99970767 -.02417778 .02417778 .99970767 -10.775653 6.180209)"/><g stroke="#000" stroke-width="2"><rect fill="#127d00" height="203" rx="11.5" width="23" x="210" y="244"/><rect fill="#127d00" height="207" rx="11.5" width="23" x="267" y="240"/><rect fill="#127d00" height="322" rx="67" width="134" x="183" y="100"/><circle cx="250" cy="185" fill="#fff" r="43"/><circle cx="250" cy="185" fill="#127d00" r="25"/></g><circle cx="250" cy="185" fill="#010101" r="16"/><circle cx="260" cy="177" fill="#fff" r="7" stroke="#000" stroke-width="2"/><path d="m292.173 267.838c10.878-11.711 0-9.28 0-9.28l-33.486 6.13c.507 10 22.608 14.861 33.486 3.15z" fill="#fff" stroke="#000" stroke-width="2"/><path d="m195 265.5c2 0 38.5 7 113-10.5" stroke="#000" stroke-width="2"/><path d="m279 125c0 4.971-11.484 5-27.5 5s-30.5-.029-30.5-5 12.484-10 28.5-10 29.5 5.029 29.5 10z" fill="#135808"/></svg>